<svg width="25" height="25" viewBox="0 0 25 25" fill="none" xmlns="http://www.w3.org/2000/svg">
<g id="north-star-24">
<path id="Union" d="M11.9551 2.15625C11.9551 1.74204 12.2909 1.40625 12.7051 1.40625C13.1193 1.40625 13.4551 1.74204 13.4551 2.15625V10.8456L18.0084 6.29228C18.3013 5.99938 18.7761 5.99938 19.069 6.29228C19.3619 6.58517 19.3619 7.06004 19.069 7.35294L14.5157 11.9062H23.2051C23.6193 11.9062 23.9551 12.242 23.9551 12.6562C23.9551 13.0705 23.6193 13.4062 23.2051 13.4062H14.5157L19.069 17.9596C19.3619 18.2524 19.3619 18.7273 19.069 19.0202C18.7761 19.3131 18.3013 19.3131 18.0084 19.0202L13.4551 14.4669V23.1562C13.4551 23.5705 13.1193 23.9062 12.7051 23.9062C12.2909 23.9062 11.9551 23.5705 11.9551 23.1562V14.4669L7.40177 19.0202C7.10887 19.3131 6.634 19.3131 6.34111 19.0202C6.04821 18.7273 6.04821 18.2524 6.34111 17.9595L10.8944 13.4062H2.20508C1.79086 13.4062 1.45508 13.0705 1.45508 12.6562C1.45508 12.242 1.79086 11.9062 2.20508 11.9062H10.8944L6.3411 7.35295C6.04821 7.06006 6.04821 6.58519 6.3411 6.29229C6.63399 5.9994 7.10887 5.9994 7.40176 6.29229L11.9551 10.8456V2.15625Z" fill="#1F1F1F"/>
</g>
</svg>
